STARTFONT 2.1
FONT -ibm-courier-medium-r-normal--14-140-100-100-m-92-iso8859-2
SIZE 14 100 100
FONTBOUNDINGBOX 16 20 -1 -3
COMMENT $Header: courR14.bdf,v 1.1 96/01/22 23:46:58 peterlin Exp $
COMMENT 
COMMENT Copyright International Business Machines,Corp. 1991
COMMENT IBM Courier is a Trademark of the IBM Corporation.
COMMENT 
COMMENT Automatic rendering from Adobe Type 1 outline:
COMMENT Primoz Peterlin <primoz.peterlin@biofiz.mf.uni-lj.si>
COMMENT cour.pfa rendered at 15.000000 points
COMMENT Checksum eb69a063
STARTPROPERTIES 3
FONT_ASCENT 16
FONT_DESCENT 3
DEFAULT_CHAR 32
ENDPROPERTIES
CHARS 191
STARTCHAR space
ENCODING 32
SWIDTH 573 0
DWIDTH 12 0
BBX 0 0 0 1
BITMAP
ENDCHAR
STARTCHAR exclam
ENCODING 33
SWIDTH 573 0
DWIDTH 12 0
BBX 3 12 5 1
BITMAP
c0
c0
c0
c0
c0
40
40
40
00
e0
e0
40
ENDCHAR
STARTCHAR quotedbl
ENCODING 34
SWIDTH 573 0
DWIDTH 12 0
BBX 6 6 4 7
BITMAP
cc
cc
cc
cc
cc
cc
ENDCHAR
STARTCHAR numbersign
ENCODING 35
SWIDTH 573 0
DWIDTH 12 0
BBX 9 15 2 0
BITMAP
2200
2200
2200
2200
2200
ff80
2200
2200
2200
2200
ff80
6200
4200
4200
4200
ENDCHAR
STARTCHAR dollar
ENCODING 36
SWIDTH 573 0
DWIDTH 12 0
BBX 8 17 2 -2
BITMAP
08
08
38
6f
8b
89
c9
78
0e
09
89
89
eb
fe
08
08
08
ENDCHAR
STARTCHAR percent
ENCODING 37
SWIDTH 573 0
DWIDTH 12 0
BBX 10 13 1 1
BITMAP
7800
cc00
8400
8400
c880
7380
1e00
7800
4380
0440
0440
0440
0380
ENDCHAR
STARTCHAR ampersand
ENCODING 38
SWIDTH 573 0
DWIDTH 12 0
BBX 9 11 2 1
BITMAP
3f00
4200
4000
6000
3000
7980
c900
8600
8600
c600
7980
ENDCHAR
STARTCHAR quoteright
ENCODING 39
SWIDTH 573 0
DWIDTH 12 0
BBX 4 5 4 8
BITMAP
70
60
60
c0
c0
ENDCHAR
STARTCHAR parenleft
ENCODING 40
SWIDTH 573 0
DWIDTH 12 0
BBX 4 16 6 -1
BITMAP
30
20
60
40
40
80
80
80
80
80
80
40
40
40
20
20
ENDCHAR
STARTCHAR parenright
ENCODING 41
SWIDTH 573 0
DWIDTH 12 0
BBX 3 16 3 -1
BITMAP
80
40
40
40
20
20
20
20
20
20
20
20
40
40
c0
80
ENDCHAR
STARTCHAR asterisk
ENCODING 42
SWIDTH 573 0
DWIDTH 12 0
BBX 8 7 2 6
BITMAP
18
18
db
7e
18
3c
66
ENDCHAR
STARTCHAR plus
ENCODING 43
SWIDTH 573 0
DWIDTH 12 0
BBX 10 9 1 3
BITMAP
0400
0400
0400
0400
ffc0
0400
0400
0400
0400
ENDCHAR
STARTCHAR comma
ENCODING 44
SWIDTH 573 0
DWIDTH 12 0
BBX 4 5 4 -1
BITMAP
70
60
60
c0
c0
ENDCHAR
STARTCHAR minus
ENCODING 45
SWIDTH 573 0
DWIDTH 12 0
BBX 10 1 1 7
BITMAP
ffc0
ENDCHAR
STARTCHAR period
ENCODING 46
SWIDTH 573 0
DWIDTH 12 0
BBX 3 3 5 1
BITMAP
e0
e0
c0
ENDCHAR
STARTCHAR slash
ENCODING 47
SWIDTH 573 0
DWIDTH 12 0
BBX 9 18 2 -2
BITMAP
0080
0180
0100
0300
0200
0600
0400
0400
0800
0800
1000
1000
2000
2000
6000
4000
c000
8000
ENDCHAR
STARTCHAR zero
ENCODING 48
SWIDTH 573 0
DWIDTH 12 0
BBX 8 13 2 1
BITMAP
3c
62
42
c1
81
81
81
81
81
81
43
62
3c
ENDCHAR
STARTCHAR one
ENCODING 49
SWIDTH 573 0
DWIDTH 12 0
BBX 9 13 2 1
BITMAP
1800
6800
8800
0800
0800
0800
0800
0800
0800
0800
0800
0800
ff80
ENDCHAR
STARTCHAR two
ENCODING 50
SWIDTH 573 0
DWIDTH 12 0
BBX 8 13 2 1
BITMAP
3c
c2
81
01
01
03
02
04
08
10
61
c1
ff
ENDCHAR
STARTCHAR three
ENCODING 51
SWIDTH 573 0
DWIDTH 12 0
BBX 8 13 2 1
BITMAP
78
c4
02
02
02
04
1e
02
01
01
01
82
fc
ENDCHAR
STARTCHAR four
ENCODING 52
SWIDTH 573 0
DWIDTH 12 0
BBX 8 13 2 1
BITMAP
0c
0c
14
14
24
24
44
44
84
ff
04
04
3f
ENDCHAR
STARTCHAR five
ENCODING 53
SWIDTH 573 0
DWIDTH 12 0
BBX 8 13 2 1
BITMAP
7e
40
40
40
40
7c
42
01
01
01
01
82
7c
ENDCHAR
STARTCHAR six
ENCODING 54
SWIDTH 573 0
DWIDTH 12 0
BBX 8 13 2 1
BITMAP
0f
30
60
40
80
9c
a2
c3
81
81
41
62
1c
ENDCHAR
STARTCHAR seven
ENCODING 55
SWIDTH 573 0
DWIDTH 12 0
BBX 8 13 2 1
BITMAP
ff
81
83
02
02
06
04
04
0c
08
08
18
10
ENDCHAR
STARTCHAR eight
ENCODING 56
SWIDTH 573 0
DWIDTH 12 0
BBX 8 13 2 1
BITMAP
1c
22
41
41
41
62
3c
62
81
81
81
42
3c
ENDCHAR
STARTCHAR nine
ENCODING 57
SWIDTH 573 0
DWIDTH 12 0
BBX 8 13 2 1
BITMAP
38
46
82
81
81
81
47
39
01
02
06
0c
f0
ENDCHAR
STARTCHAR colon
ENCODING 58
SWIDTH 573 0
DWIDTH 12 0
BBX 3 8 5 1
BITMAP
e0
e0
c0
00
00
e0
e0
c0
ENDCHAR
STARTCHAR semicolon
ENCODING 59
SWIDTH 573 0
DWIDTH 12 0
BBX 4 10 4 -1
BITMAP
70
70
60
00
00
30
60
60
c0
c0
ENDCHAR
STARTCHAR less
ENCODING 60
SWIDTH 573 0
DWIDTH 12 0
BBX 10 9 1 3
BITMAP
00c0
0300
0c00
3000
c000
3000
0e00
0380
00c0
ENDCHAR
STARTCHAR equal
ENCODING 61
SWIDTH 573 0
DWIDTH 12 0
BBX 10 5 1 5
BITMAP
ffc0
0000
0000
0000
ffc0
ENDCHAR
STARTCHAR greater
ENCODING 62
SWIDTH 573 0
DWIDTH 12 0
BBX 10 9 1 3
BITMAP
c000
7000
0c00
0300
00c0
0700
1c00
f000
c000
ENDCHAR
STARTCHAR question
ENCODING 63
SWIDTH 573 0
DWIDTH 12 0
BBX 7 12 3 1
BITMAP
78
84
82
02
02
0c
30
20
00
70
70
20
ENDCHAR
STARTCHAR at
ENCODING 64
SWIDTH 573 0
DWIDTH 12 0
BBX 11 11 1 1
BITMAP
1f00
60c0
4040
8d20
8b20
9220
9220
9640
4b80
60c0
1f80
ENDCHAR
STARTCHAR A
ENCODING 65
SWIDTH 573 0
DWIDTH 12 0
BBX 12 12 0 1
BITMAP
3e00
0600
0500
0900
0880
1080
1080
1fc0
2040
2020
4020
f0f0
ENDCHAR
STARTCHAR B
ENCODING 66
SWIDTH 573 0
DWIDTH 12 0
BBX 10 12 1 1
BITMAP
ff00
2080
2040
2040
2080
3f00
2080
2040
2040
2040
20c0
ff80
ENDCHAR
STARTCHAR C
ENCODING 67
SWIDTH 573 0
DWIDTH 12 0
BBX 11 12 1 1
BITMAP
0f40
30c0
4040
c040
8000
8000
8000
8000
c000
4020
3060
1f80
ENDCHAR
STARTCHAR D
ENCODING 68
SWIDTH 573 0
DWIDTH 12 0
BBX 11 12 1 1
BITMAP
ff00
4180
40c0
4040
4020
4020
4020
4020
4040
4040
4180
ff00
ENDCHAR
STARTCHAR E
ENCODING 69
SWIDTH 573 0
DWIDTH 12 0
BBX 10 12 1 1
BITMAP
ffc0
2040
2040
2040
2200
3e00
2200
2200
2040
2040
2040
ffc0
ENDCHAR
STARTCHAR F
ENCODING 70
SWIDTH 573 0
DWIDTH 12 0
BBX 9 12 2 1
BITMAP
ff80
4080
4080
4080
4200
7e00
4200
4200
4000
4000
4000
f800
ENDCHAR
STARTCHAR G
ENCODING 71
SWIDTH 573 0
DWIDTH 12 0
BBX 11 12 1 1
BITMAP
1f40
31c0
40c0
4040
8000
8000
8000
83e0
8040
4040
2040
1f80
ENDCHAR
STARTCHAR H
ENCODING 72
SWIDTH 573 0
DWIDTH 12 0
BBX 11 12 1 1
BITMAP
f1e0
4080
4080
4080
4080
7f80
4080
4080
4080
4080
4080
f1e0
ENDCHAR
STARTCHAR I
ENCODING 73
SWIDTH 573 0
DWIDTH 12 0
BBX 8 12 2 1
BITMAP
ff
08
08
08
08
08
08
08
08
08
08
ff
ENDCHAR
STARTCHAR J
ENCODING 74
SWIDTH 573 0
DWIDTH 12 0
BBX 11 12 1 1
BITMAP
1fe0
0100
0100
0100
0100
0100
8100
8100
8100
8100
c300
7e00
ENDCHAR
STARTCHAR K
ENCODING 75
SWIDTH 573 0
DWIDTH 12 0
BBX 11 12 1 1
BITMAP
f9e0
20c0
2100
2200
2400
2800
3600
2300
2100
2080
2080
f860
ENDCHAR
STARTCHAR L
ENCODING 76
SWIDTH 573 0
DWIDTH 12 0
BBX 11 12 1 1
BITMAP
fc00
2000
2000
2000
2000
2000
2000
2060
2040
2040
2040
ffc0
ENDCHAR
STARTCHAR M
ENCODING 77
SWIDTH 573 0
DWIDTH 12 0
BBX 13 12 0 1
BITMAP
f070
70a0
50a0
48a0
48a0
4920
4520
4520
4620
4020
4020
f0f8
ENDCHAR
STARTCHAR N
ENCODING 78
SWIDTH 573 0
DWIDTH 12 0
BBX 11 12 1 1
BITMAP
e1e0
5040
5040
4840
4840
4440
4440
4240
4240
4140
4140
f8c0
ENDCHAR
STARTCHAR O
ENCODING 79
SWIDTH 573 0
DWIDTH 12 0
BBX 11 12 1 1
BITMAP
1f00
2180
4040
c040
8020
8020
8020
8020
c060
4040
2180
1f00
ENDCHAR
STARTCHAR P
ENCODING 80
SWIDTH 573 0
DWIDTH 12 0
BBX 10 12 1 1
BITMAP
ff00
2080
2040
2040
2040
20c0
3f00
2000
2000
2000
2000
fc00
ENDCHAR
STARTCHAR Q
ENCODING 81
SWIDTH 573 0
DWIDTH 12 0
BBX 11 15 1 -2
BITMAP
1f00
2180
4040
c040
8020
8020
8020
8020
c060
4040
6180
1f00
1800
3e20
21c0
ENDCHAR
STARTCHAR R
ENCODING 82
SWIDTH 573 0
DWIDTH 12 0
BBX 11 12 1 1
BITMAP
ff00
2180
2080
2080
2080
2180
3f00
2200
2100
2100
2180
f8e0
ENDCHAR
STARTCHAR S
ENCODING 83
SWIDTH 573 0
DWIDTH 12 0
BBX 9 12 2 1
BITMAP
3c80
4380
8180
8080
8000
7000
1f00
0180
8080
8080
c100
be00
ENDCHAR
STARTCHAR T
ENCODING 84
SWIDTH 573 0
DWIDTH 12 0
BBX 11 12 1 1
BITMAP
ffe0
8420
8420
8420
8420
0400
0400
0400
0400
0400
0400
3f80
ENDCHAR
STARTCHAR U
ENCODING 85
SWIDTH 573 0
DWIDTH 12 0
BBX 11 12 1 1
BITMAP
f3e0
4040
4040
4040
4040
4040
4040
4040
4040
40c0
2080
1f00
ENDCHAR
STARTCHAR V
ENCODING 86
SWIDTH 573 0
DWIDTH 12 0
BBX 12 12 0 1
BITMAP
f0f0
2020
2020
2040
1040
1080
0880
0880
0900
0500
0500
0600
ENDCHAR
STARTCHAR W
ENCODING 87
SWIDTH 573 0
DWIDTH 12 0
BBX 13 12 0 1
BITMAP
f078
4010
4210
4210
4710
2520
2920
28a0
28a0
30e0
3060
3060
ENDCHAR
STARTCHAR X
ENCODING 88
SWIDTH 573 0
DWIDTH 12 0
BBX 11 12 1 1
BITMAP
f1e0
60c0
2180
1100
0a00
0400
0c00
0a00
1100
2080
40c0
f1e0
ENDCHAR
STARTCHAR Y
ENCODING 89
SWIDTH 573 0
DWIDTH 12 0
BBX 11 12 1 1
BITMAP
f1e0
2080
2080
1100
1100
0a00
0e00
0400
0400
0400
0400
1f00
ENDCHAR
STARTCHAR Z
ENCODING 90
SWIDTH 573 0
DWIDTH 12 0
BBX 9 12 2 1
BITMAP
ff80
8100
8200
8600
0c00
0800
1000
3000
2080
4080
8080
ff80
ENDCHAR
STARTCHAR bracketleft
ENCODING 91
SWIDTH 573 0
DWIDTH 12 0
BBX 3 16 7 -1
BITMAP
e0
80
80
80
80
80
80
80
80
80
80
80
80
80
80
e0
ENDCHAR
STARTCHAR backslash
ENCODING 92
SWIDTH 573 0
DWIDTH 12 0
BBX 9 18 2 -2
BITMAP
8000
c000
4000
6000
2000
2000
1000
1000
0800
0800
0400
0400
0600
0200
0300
0100
0180
0080
ENDCHAR
STARTCHAR bracketright
ENCODING 93
SWIDTH 573 0
DWIDTH 12 0
BBX 4 16 2 -1
BITMAP
f0
10
10
10
10
10
10
10
10
10
10
10
10
10
10
f0
ENDCHAR
STARTCHAR asciicircum
ENCODING 94
SWIDTH 573 0
DWIDTH 12 0
BBX 10 9 1 4
BITMAP
0c00
1e00
1a00
3300
3100
6100
6180
c080
c0c0
ENDCHAR
STARTCHAR underscore
ENCODING 95
SWIDTH 573 0
DWIDTH 12 0
BBX 15 1 -1 -2
BITMAP
fffe
ENDCHAR
STARTCHAR quoteleft
ENCODING 96
SWIDTH 573 0
DWIDTH 12 0
BBX 4 5 4 8
BITMAP
30
20
60
60
e0
ENDCHAR
STARTCHAR a
ENCODING 97
SWIDTH 573 0
DWIDTH 12 0
BBX 11 9 1 1
BITMAP
3f00
0180
0080
3f80
4080
8080
8080
c380
3ce0
ENDCHAR
STARTCHAR b
ENCODING 98
SWIDTH 573 0
DWIDTH 12 0
BBX 11 13 0 1
BITMAP
e000
2000
2000
2000
2780
38c0
3060
2020
2020
2020
3060
38c0
ef80
ENDCHAR
STARTCHAR c
ENCODING 99
SWIDTH 573 0
DWIDTH 12 0
BBX 10 9 2 1
BITMAP
3e80
6180
c080
8000
8000
8000
c080
6180
3e00
ENDCHAR
STARTCHAR d
ENCODING 100
SWIDTH 573 0
DWIDTH 12 0
BBX 11 13 1 1
BITMAP
0180
0080
0080
0080
1e80
6180
4080
8080
8080
8080
c080
6180
1ee0
ENDCHAR
STARTCHAR e
ENCODING 101
SWIDTH 573 0
DWIDTH 12 0
BBX 10 9 2 1
BITMAP
3e00
6300
c080
8080
ff80
8000
8000
4180
3f00
ENDCHAR
STARTCHAR f
ENCODING 102
SWIDTH 573 0
DWIDTH 12 0
BBX 9 13 2 1
BITMAP
1f00
3000
2000
2000
ff00
2000
2000
2000
2000
2000
2000
2000
ff00
ENDCHAR
STARTCHAR g
ENCODING 103
SWIDTH 573 0
DWIDTH 12 0
BBX 11 12 1 -2
BITMAP
3ee0
6380
c180
8080
8080
8080
4180
6380
1c80
0080
0180
1e00
ENDCHAR
STARTCHAR h
ENCODING 104
SWIDTH 573 0
DWIDTH 12 0
BBX 11 13 1 1
BITMAP
e000
2000
2000
2000
2f00
3080
2080
2080
2080
2080
2080
2080
f3e0
ENDCHAR
STARTCHAR i
ENCODING 105
SWIDTH 573 0
DWIDTH 12 0
BBX 8 15 2 1
BITMAP
0c
0c
0c
00
00
00
78
08
08
08
08
08
08
08
ff
ENDCHAR
STARTCHAR j
ENCODING 106
SWIDTH 573 0
DWIDTH 12 0
BBX 8 18 1 -2
BITMAP
03
03
03
00
00
00
7e
02
02
02
02
02
02
02
02
02
06
fc
ENDCHAR
STARTCHAR k
ENCODING 107
SWIDTH 573 0
DWIDTH 12 0
BBX 11 13 1 1
BITMAP
e000
2000
2000
2000
23c0
2300
2400
2800
3c00
2600
2100
2080
e1e0
ENDCHAR
STARTCHAR l
ENCODING 108
SWIDTH 573 0
DWIDTH 12 0
BBX 8 13 2 1
BITMAP
f8
08
08
08
08
08
08
08
08
08
08
08
ff
ENDCHAR
STARTCHAR m
ENCODING 109
SWIDTH 573 0
DWIDTH 12 0
BBX 13 9 0 1
BITMAP
fdc0
2320
2220
2220
2220
2220
2220
2220
f338
ENDCHAR
STARTCHAR n
ENCODING 110
SWIDTH 573 0
DWIDTH 12 0
BBX 11 9 1 1
BITMAP
df00
6180
4080
4080
4080
4080
4080
4080
f3e0
ENDCHAR
STARTCHAR o
ENCODING 111
SWIDTH 573 0
DWIDTH 12 0
BBX 10 9 1 1
BITMAP
1f00
6180
c0c0
8040
8040
8040
40c0
6180
1f00
ENDCHAR
STARTCHAR p
ENCODING 112
SWIDTH 573 0
DWIDTH 12 0
BBX 11 12 0 -2
BITMAP
ef80
3840
3020
2020
2020
2020
3060
38c0
2780
2000
2000
fc00
ENDCHAR
STARTCHAR q
ENCODING 113
SWIDTH 573 0
DWIDTH 12 0
BBX 11 12 1 -2
BITMAP
1ee0
6180
c080
8080
8080
8080
4180
6380
1e80
0080
0080
07e0
ENDCHAR
STARTCHAR r
ENCODING 114
SWIDTH 573 0
DWIDTH 12 0
BBX 10 9 2 1
BITMAP
e780
2c40
3000
2000
2000
2000
2000
2000
fe00
ENDCHAR
STARTCHAR s
ENCODING 115
SWIDTH 573 0
DWIDTH 12 0
BBX 9 9 2 1
BITMAP
7d00
c300
8100
c000
3f00
8180
8080
c180
be00
ENDCHAR
STARTCHAR t
ENCODING 116
SWIDTH 573 0
DWIDTH 12 0
BBX 9 12 2 1
BITMAP
2000
2000
2000
ff00
2000
2000
2000
2000
2000
2000
2080
1f00
ENDCHAR
STARTCHAR u
ENCODING 117
SWIDTH 573 0
DWIDTH 12 0
BBX 11 9 1 1
BITMAP
c380
4080
4080
4080
4080
4080
4080
2180
1ee0
ENDCHAR
STARTCHAR v
ENCODING 118
SWIDTH 573 0
DWIDTH 12 0
BBX 11 9 1 1
BITMAP
f1e0
2080
2080
1100
1100
1100
0a00
0a00
0400
ENDCHAR
STARTCHAR w
ENCODING 119
SWIDTH 573 0
DWIDTH 12 0
BBX 13 9 0 1
BITMAP
f078
4010
6230
2620
2520
2520
1940
18c0
18c0
ENDCHAR
STARTCHAR x
ENCODING 120
SWIDTH 573 0
DWIDTH 12 0
BBX 11 9 1 1
BITMAP
f1e0
2080
1300
0e00
0c00
1a00
1100
2080
f1e0
ENDCHAR
STARTCHAR y
ENCODING 121
SWIDTH 573 0
DWIDTH 12 0
BBX 12 12 0 -2
BITMAP
f0f0
2060
2040
1080
1880
0900
0500
0600
0200
0400
0c00
fe00
ENDCHAR
STARTCHAR z
ENCODING 122
SWIDTH 573 0
DWIDTH 12 0
BBX 8 9 2 1
BITMAP
ff
82
86
04
08
10
21
41
ff
ENDCHAR
STARTCHAR braceleft
ENCODING 123
SWIDTH 573 0
DWIDTH 12 0
BBX 5 16 5 -1
BITMAP
18
60
40
40
60
20
20
40
c0
20
20
20
40
40
60
38
ENDCHAR
STARTCHAR bar
ENCODING 124
SWIDTH 573 0
DWIDTH 12 0
BBX 1 18 6 -3
BITMAP
80
80
80
80
80
80
80
80
80
80
80
80
80
80
80
80
80
80
ENDCHAR
STARTCHAR braceright
ENCODING 125
SWIDTH 573 0
DWIDTH 12 0
BBX 5 16 3 -1
BITMAP
c0
60
20
20
20
20
20
30
18
20
20
20
20
20
20
c0
ENDCHAR
STARTCHAR asciitilde
ENCODING 126
SWIDTH 573 0
DWIDTH 12 0
BBX 9 3 2 6
BITMAP
2080
7d00
8600
ENDCHAR
STARTCHAR space
ENCODING 160
SWIDTH 573 0
DWIDTH 12 0
BBX 0 0 0 1
BITMAP
ENDCHAR
STARTCHAR Aogonek
ENCODING 161
SWIDTH 573 0
DWIDTH 12 0
BBX 12 14 0 -1
BITMAP
3e00
0600
0500
0900
0880
1080
1080
1fc0
2040
2020
4020
f0f0
0060
0060
ENDCHAR
STARTCHAR breve
ENCODING 162
SWIDTH 573 0
DWIDTH 12 0
BBX 7 2 3 12
BITMAP
c6
7c
ENDCHAR
STARTCHAR Lslash
ENCODING 163
SWIDTH 573 0
DWIDTH 12 0
BBX 11 12 1 1
BITMAP
fc00
2000
2000
2300
2e00
3800
e040
6060
2040
2040
2040
ffc0
ENDCHAR
STARTCHAR currency
ENCODING 164
SWIDTH 573 0
DWIDTH 12 0
BBX 9 10 2 2
BITMAP
8080
dd80
6300
4100
4100
4100
4100
2200
dd00
8080
ENDCHAR
STARTCHAR Lcaron
ENCODING 165
SWIDTH 573 0
DWIDTH 12 0
BBX 11 13 1 1
BITMAP
0180
fd00
2000
2000
2000
2000
2000
2000
2060
2040
2040
2040
ffc0
ENDCHAR
STARTCHAR Sacute
ENCODING 166
SWIDTH 573 0
DWIDTH 12 0
BBX 9 16 2 1
BITMAP
0c00
0800
0000
0000
3c80
4380
8180
8080
8000
7000
1f00
0180
8080
8080
c100
be00
ENDCHAR
STARTCHAR section
ENCODING 167
SWIDTH 573 0
DWIDTH 12 0
BBX 7 14 3 -1
BITMAP
3e
42
42
60
70
98
84
42
22
1e
0c
84
8c
f8
ENDCHAR
STARTCHAR dieresis
ENCODING 168
SWIDTH 573 0
DWIDTH 12 0
BBX 5 2 4 12
BITMAP
d8
d8
ENDCHAR
STARTCHAR Scaron
ENCODING 169
SWIDTH 573 0
DWIDTH 12 0
BBX 9 16 2 1
BITMAP
3200
1c00
0000
0000
3c80
4380
8180
8080
8000
7000
1f00
0180
8080
8080
c100
be00
ENDCHAR
STARTCHAR Scedilla
ENCODING 170
SWIDTH 573 0
DWIDTH 12 0
BBX 9 15 2 -2
BITMAP
3c80
4380
8180
8080
8000
7000
1f00
0180
8080
8080
c100
be00
0c00
0400
3c00
ENDCHAR
STARTCHAR Tcaron
ENCODING 171
SWIDTH 573 0
DWIDTH 12 0
BBX 11 16 1 1
BITMAP
1900
0e00
0000
0000
ffe0
8420
8420
8420
8420
0400
0400
0400
0400
0400
0400
3f80
ENDCHAR
STARTCHAR Zacute
ENCODING 172
SWIDTH 573 0
DWIDTH 12 0
BBX 9 16 2 1
BITMAP
0c00
0800
0000
0000
ff80
8100
8200
8600
0c00
0800
1000
3000
2080
4080
8080
ff80
ENDCHAR
STARTCHAR hyphen
ENCODING 173
SWIDTH 573 0
DWIDTH 12 0
BBX 4 1 4 7
BITMAP
f0
ENDCHAR
STARTCHAR Zcaron
ENCODING 174
SWIDTH 573 0
DWIDTH 12 0
BBX 9 16 2 1
BITMAP
3200
1c00
0000
0000
ff80
8100
8200
8600
0c00
0800
1000
3000
2080
4080
8080
ff80
ENDCHAR
STARTCHAR Zdotaccent
ENCODING 175
SWIDTH 573 0
DWIDTH 12 0
BBX 9 16 2 1
BITMAP
0800
0800
0000
0000
ff80
8100
8200
8600
0c00
0800
1000
3000
2080
4080
8080
ff80
ENDCHAR
STARTCHAR degree
ENCODING 176
SWIDTH 573 0
DWIDTH 12 0
BBX 6 6 3 8
BITMAP
38
4c
84
84
c4
78
ENDCHAR
STARTCHAR aogonek
ENCODING 177
SWIDTH 573 0
DWIDTH 12 0
BBX 11 11 1 -1
BITMAP
3f00
0180
0080
3f80
4080
8080
8080
c380
3ce0
0080
0180
ENDCHAR
STARTCHAR ogonek
ENCODING 178
SWIDTH 573 0
DWIDTH 12 0
BBX 3 3 5 -2
BITMAP
60
a0
c0
ENDCHAR
STARTCHAR lslash
ENCODING 179
SWIDTH 573 0
DWIDTH 12 0
BBX 8 13 2 1
BITMAP
f8
08
08
08
09
0e
18
e8
48
08
08
08
ff
ENDCHAR
STARTCHAR acute
ENCODING 180
SWIDTH 573 0
DWIDTH 12 0
BBX 4 2 5 12
BITMAP
60
40
ENDCHAR
STARTCHAR lcaron
ENCODING 181
SWIDTH 573 0
DWIDTH 12 0
BBX 9 13 2 1
BITMAP
fb00
0a00
0800
0800
0800
0800
0800
0800
0800
0800
0800
0800
ff00
ENDCHAR
STARTCHAR sacute
ENCODING 182
SWIDTH 573 0
DWIDTH 12 0
BBX 9 13 2 1
BITMAP
0c00
0800
0000
0000
7d00
c300
8100
c000
3f00
8180
8080
c180
be00
ENDCHAR
STARTCHAR caron
ENCODING 183
SWIDTH 573 0
DWIDTH 12 0
BBX 5 2 4 12
BITMAP
c8
70
ENDCHAR
STARTCHAR cedilla
ENCODING 184
SWIDTH 573 0
DWIDTH 12 0
BBX 4 4 4 -2
BITMAP
20
30
10
f0
ENDCHAR
STARTCHAR scaron
ENCODING 185
SWIDTH 573 0
DWIDTH 12 0
BBX 9 13 2 1
BITMAP
3200
1c00
0000
0000
7d00
c300
8100
c000
3f00
8180
8080
c180
be00
ENDCHAR
STARTCHAR scedilla
ENCODING 186
SWIDTH 573 0
DWIDTH 12 0
BBX 9 12 2 -2
BITMAP
7d00
c300
8100
c000
3e00
8180
8080
c180
bf00
0c00
0400
3c00
ENDCHAR
STARTCHAR tcaron
ENCODING 187
SWIDTH 573 0
DWIDTH 12 0
BBX 9 13 2 1
BITMAP
0600
2400
2000
2000
ff00
2000
2000
2000
2000
2000
2000
2080
1f00
ENDCHAR
STARTCHAR zacute
ENCODING 188
SWIDTH 573 0
DWIDTH 12 0
BBX 8 13 2 1
BITMAP
0c
08
00
00
ff
82
86
04
08
10
21
41
ff
ENDCHAR
STARTCHAR hungarumlaut
ENCODING 189
SWIDTH 573 0
DWIDTH 12 0
BBX 6 2 4 12
BITMAP
28
50
ENDCHAR
STARTCHAR zcaron
ENCODING 190
SWIDTH 573 0
DWIDTH 12 0
BBX 8 13 2 1
BITMAP
32
1c
00
00
ff
82
86
04
08
10
21
41
ff
ENDCHAR
STARTCHAR zdotaccent
ENCODING 191
SWIDTH 573 0
DWIDTH 12 0
BBX 8 13 2 1
BITMAP
08
08
00
00
ff
82
86
04
08
10
21
41
ff
ENDCHAR
STARTCHAR Racute
ENCODING 192
SWIDTH 573 0
DWIDTH 12 0
BBX 11 16 1 1
BITMAP
0600
0400
0000
0000
ff00
2180
2080
2080
2080
2180
3f00
2200
2100
2100
2180
f8e0
ENDCHAR
STARTCHAR Aacute
ENCODING 193
SWIDTH 573 0
DWIDTH 12 0
BBX 12 16 0 1
BITMAP
0300
0200
0000
0000
3e00
0600
0500
0900
0880
1080
1080
1fc0
2040
2020
4020
f0f0
ENDCHAR
STARTCHAR Acircumflex
ENCODING 194
SWIDTH 573 0
DWIDTH 12 0
BBX 12 16 0 1
BITMAP
0700
0500
0880
0000
3e00
0600
0500
0900
0880
1080
1080
1fc0
2040
2020
4020
f0f0
ENDCHAR
STARTCHAR Abreve
ENCODING 195
SWIDTH 573 0
DWIDTH 12 0
BBX 12 16 0 1
BITMAP
18c0
08c0
0700
0000
3e00
0600
0500
0900
0880
1080
1080
1fc0
2040
2020
4020
f0f0
ENDCHAR
STARTCHAR Adieresis
ENCODING 196
SWIDTH 573 0
DWIDTH 12 0
BBX 12 16 0 1
BITMAP
0d80
0d80
0000
0000
3e00
0600
0500
0900
0880
1080
1080
1fc0
2040
2020
4020
f0f0
ENDCHAR
STARTCHAR Lacute
ENCODING 197
SWIDTH 573 0
DWIDTH 12 0
BBX 11 16 1 1
BITMAP
3000
2000
0000
0000
fc00
2000
2000
2000
2000
2000
2000
2060
2040
2040
2040
ffc0
ENDCHAR
STARTCHAR Cacute
ENCODING 198
SWIDTH 573 0
DWIDTH 12 0
BBX 11 16 1 1
BITMAP
0600
0400
0000
0000
0f40
30c0
4040
c040
8000
8000
8000
8000
c000
4020
3060
1f80
ENDCHAR
STARTCHAR Ccedilla
ENCODING 199
SWIDTH 573 0
DWIDTH 12 0
BBX 11 15 1 -2
BITMAP
1f40
21c0
40c0
c040
8000
8000
8000
8000
c000
4020
20e0
1f80
0600
0100
0e00
ENDCHAR
STARTCHAR Ccaron
ENCODING 200
SWIDTH 573 0
DWIDTH 12 0
BBX 11 16 1 1
BITMAP
1900
0e00
0000
0000
0f40
30c0
4040
c040
8000
8000
8000
8000
c000
4020
3060
1f80
ENDCHAR
STARTCHAR Eacute
ENCODING 201
SWIDTH 573 0
DWIDTH 12 0
BBX 10 16 1 1
BITMAP
0600
0400
0000
0000
ffc0
2040
2040
2040
2200
3e00
2200
2200
2040
2040
2040
ffc0
ENDCHAR
STARTCHAR Eogonek
ENCODING 202
SWIDTH 573 0
DWIDTH 12 0
BBX 10 14 1 -1
BITMAP
ffc0
2040
2040
2040
2200
3e00
2200
2200
2040
2040
2040
ffc0
0180
0180
ENDCHAR
STARTCHAR Edieresis
ENCODING 203
SWIDTH 573 0
DWIDTH 12 0
BBX 10 16 1 1
BITMAP
1b00
1b00
0000
0000
ffc0
2040
2040
2040
2200
3e00
2200
2200
2040
2040
2040
ffc0
ENDCHAR
STARTCHAR Ecaron
ENCODING 204
SWIDTH 573 0
DWIDTH 12 0
BBX 10 16 1 1
BITMAP
1900
0e00
0000
0000
ffc0
2040
2040
2040
2200
3e00
2200
2200
2040
2040
2040
ffc0
ENDCHAR
STARTCHAR Iacute
ENCODING 205
SWIDTH 573 0
DWIDTH 12 0
BBX 8 16 2 1
BITMAP
0c
08
00
00
ff
08
08
08
08
08
08
08
08
08
08
ff
ENDCHAR
STARTCHAR Icircumflex
ENCODING 206
SWIDTH 573 0
DWIDTH 12 0
BBX 8 16 2 1
BITMAP
1c
14
22
00
ff
08
08
08
08
08
08
08
08
08
08
ff
ENDCHAR
STARTCHAR Dcaron
ENCODING 207
SWIDTH 573 0
DWIDTH 12 0
BBX 11 16 1 1
BITMAP
1900
0e00
0000
0000
ff00
4180
40c0
4040
4020
4020
4020
4020
4040
4040
4180
ff00
ENDCHAR
STARTCHAR Eth
ENCODING 208
SWIDTH 573 0
DWIDTH 12 0
BBX 11 12 1 1
BITMAP
ff00
4180
40c0
4040
4020
fc20
4020
4020
4040
40c0
4180
ff00
ENDCHAR
STARTCHAR Nacute
ENCODING 209
SWIDTH 573 0
DWIDTH 12 0
BBX 11 16 1 1
BITMAP
0600
0400
0000
0000
e1e0
5040
5040
4840
4840
4440
4440
4240
4240
4140
4140
f8c0
ENDCHAR
STARTCHAR Ncaron
ENCODING 210
SWIDTH 573 0
DWIDTH 12 0
BBX 11 16 1 1
BITMAP
1900
0e00
0000
0000
e1e0
5040
5040
4840
4840
4440
4440
4240
4240
4140
4140
f8c0
ENDCHAR
STARTCHAR Oacute
ENCODING 211
SWIDTH 573 0
DWIDTH 12 0
BBX 11 16 1 1
BITMAP
0600
0400
0000
0000
1f00
2180
4040
c040
8020
8020
8020
8020
c060
4040
2180
1f00
ENDCHAR
STARTCHAR Ocircumflex
ENCODING 212
SWIDTH 573 0
DWIDTH 12 0
BBX 11 16 1 1
BITMAP
0e00
0a00
1100
0000
1f00
2180
4040
c040
8020
8020
8020
8020
c060
4040
2180
1f00
ENDCHAR
STARTCHAR Ohungarumlaut
ENCODING 213
SWIDTH 573 0
DWIDTH 12 0
BBX 11 16 1 1
BITMAP
0500
0a00
0000
0000
1f00
2180
4040
c040
8020
8020
8020
8020
c060
4040
2180
1f00
ENDCHAR
STARTCHAR Odieresis
ENCODING 214
SWIDTH 573 0
DWIDTH 12 0
BBX 11 16 1 1
BITMAP
1b00
1b00
0000
0000
1f00
2180
4040
c040
8020
8020
8020
8020
c060
4040
2180
1f00
ENDCHAR
STARTCHAR multiply
ENCODING 215
SWIDTH 573 0
DWIDTH 12 0
BBX 8 7 2 4
BITMAP
c3
67
3e
18
3c
66
c3
ENDCHAR
STARTCHAR Rcaron
ENCODING 216
SWIDTH 573 0
DWIDTH 12 0
BBX 11 16 1 1
BITMAP
1900
0e00
0000
0000
ff00
2180
2080
2080
2080
2180
3f00
2200
2100
2100
2180
f8e0
ENDCHAR
STARTCHAR Uring
ENCODING 217
SWIDTH 573 0
DWIDTH 12 0
BBX 11 16 1 1
BITMAP
0e00
0a00
0c00
0000
f3e0
4040
4040
4040
4040
4040
4040
4040
4040
40c0
2080
1f00
ENDCHAR
STARTCHAR Uacute
ENCODING 218
SWIDTH 573 0
DWIDTH 12 0
BBX 11 16 1 1
BITMAP
0600
0400
0000
0000
f3e0
4040
4040
4040
4040
4040
4040
4040
4040
40c0
2080
1f00
ENDCHAR
STARTCHAR Uhungarumlaut
ENCODING 219
SWIDTH 573 0
DWIDTH 12 0
BBX 11 16 1 1
BITMAP
0500
0a00
0000
0000
f3e0
4040
4040
4040
4040
4040
4040
4040
4040
40c0
2080
1f00
ENDCHAR
STARTCHAR Udieresis
ENCODING 220
SWIDTH 573 0
DWIDTH 12 0
BBX 11 16 1 1
BITMAP
1b00
1b00
0000
0000
f3e0
4040
4040
4040
4040
4040
4040
4040
4040
40c0
2080
1f00
ENDCHAR
STARTCHAR Yacute
ENCODING 221
SWIDTH 573 0
DWIDTH 12 0
BBX 11 16 1 1
BITMAP
0600
0400
0000
0000
f1e0
2080
2080
1100
1100
0a00
0e00
0400
0400
0400
0400
1f00
ENDCHAR
STARTCHAR Tcedilla
ENCODING 222
SWIDTH 573 0
DWIDTH 12 0
BBX 11 15 1 -2
BITMAP
ffe0
8460
8420
8420
8420
0400
0400
0400
0400
0400
0400
3f00
0600
0200
1e00
ENDCHAR
STARTCHAR germandbls
ENCODING 223
SWIDTH 573 0
DWIDTH 12 0
BBX 10 13 1 1
BITMAP
0e00
1100
2100
2100
2300
2e00
2180
2080
2040
2040
2040
2880
ef00
ENDCHAR
STARTCHAR racute
ENCODING 224
SWIDTH 573 0
DWIDTH 12 0
BBX 10 13 2 1
BITMAP
0c00
0800
0000
0000
e780
2c40
3000
2000
2000
2000
2000
2000
fe00
ENDCHAR
STARTCHAR aacute
ENCODING 225
SWIDTH 573 0
DWIDTH 12 0
BBX 11 13 1 1
BITMAP
0600
0400
0000
0000
3f00
0180
0080
3f80
4080
8080
8080
c380
3ce0
ENDCHAR
STARTCHAR acircumflex
ENCODING 226
SWIDTH 573 0
DWIDTH 12 0
BBX 11 13 1 1
BITMAP
1c00
3600
0000
0000
3f00
0180
0080
3f80
4080
8080
8080
c380
3ce0
ENDCHAR
STARTCHAR abreve
ENCODING 227
SWIDTH 573 0
DWIDTH 12 0
BBX 11 13 1 1
BITMAP
3180
1f00
0000
0000
3f00
0180
0080
3f80
4080
8080
8080
c380
3ce0
ENDCHAR
STARTCHAR adieresis
ENCODING 228
SWIDTH 573 0
DWIDTH 12 0
BBX 11 13 1 1
BITMAP
1b00
1b00
0000
0000
3f00
0180
0080
3f80
4080
8080
8080
c380
3ce0
ENDCHAR
STARTCHAR lacute
ENCODING 229
SWIDTH 573 0
DWIDTH 12 0
BBX 8 16 2 1
BITMAP
18
10
00
f8
08
08
08
08
08
08
08
08
08
08
08
ff
ENDCHAR
STARTCHAR cacute
ENCODING 230
SWIDTH 573 0
DWIDTH 12 0
BBX 10 13 2 1
BITMAP
0c00
0800
0000
0000
3e80
6180
c080
8000
8000
8000
c080
6180
3e00
ENDCHAR
STARTCHAR ccedilla
ENCODING 231
SWIDTH 573 0
DWIDTH 12 0
BBX 10 12 2 -2
BITMAP
3e80
6180
c080
8000
8000
8000
c080
6180
3e00
0800
0400
1c00
ENDCHAR
STARTCHAR ccaron
ENCODING 232
SWIDTH 573 0
DWIDTH 12 0
BBX 10 13 2 1
BITMAP
3200
1c00
0000
0000
3e80
6180
c080
8000
8000
8000
c080
6180
3e00
ENDCHAR
STARTCHAR eacute
ENCODING 233
SWIDTH 573 0
DWIDTH 12 0
BBX 10 13 2 1
BITMAP
0c00
0800
0000
0000
3e00
6300
c080
8080
ff80
8000
8000
4180
3f00
ENDCHAR
STARTCHAR eogonek
ENCODING 234
SWIDTH 573 0
DWIDTH 12 0
BBX 10 11 2 -1
BITMAP
3e00
6300
c080
8080
ff80
8000
8000
4180
3f00
0800
0c00
ENDCHAR
STARTCHAR edieresis
ENCODING 235
SWIDTH 573 0
DWIDTH 12 0
BBX 10 13 2 1
BITMAP
3600
3600
0000
0000
3e00
6300
c080
8080
ff80
8000
8000
4180
3f00
ENDCHAR
STARTCHAR ecaron
ENCODING 236
SWIDTH 573 0
DWIDTH 12 0
BBX 10 13 2 1
BITMAP
3200
1c00
0000
0000
3e00
6300
c080
8080
ff80
8000
8000
4180
3f00
ENDCHAR
STARTCHAR iacute
ENCODING 237
SWIDTH 573 0
DWIDTH 12 0
BBX 8 13 2 1
BITMAP
0c
08
00
00
78
08
08
08
08
08
08
08
ff
ENDCHAR
STARTCHAR icircumflex
ENCODING 238
SWIDTH 573 0
DWIDTH 12 0
BBX 8 13 2 1
BITMAP
1c
36
00
00
78
08
08
08
08
08
08
08
ff
ENDCHAR
STARTCHAR dcaron
ENCODING 239
SWIDTH 573 0
DWIDTH 12 0
BBX 13 13 1 1
BITMAP
01b0
00a0
0080
0080
1e80
6180
4080
8080
8080
8080
c080
6180
1ee0
ENDCHAR
STARTCHAR dbar
ENCODING 240
SWIDTH 573 0
DWIDTH 12 0
BBX 11 13 1 1
BITMAP
0180
0080
1fe0
0080
1e80
6180
4080
8080
8080
8080
c080
6180
1ee0
ENDCHAR
STARTCHAR nacute
ENCODING 241
SWIDTH 573 0
DWIDTH 12 0
BBX 11 13 1 1
BITMAP
0600
0400
0000
0000
df00
6180
4080
4080
4080
4080
4080
4080
f3e0
ENDCHAR
STARTCHAR ncaron
ENCODING 242
SWIDTH 573 0
DWIDTH 12 0
BBX 11 13 1 1
BITMAP
1900
0e00
0000
0000
df00
6180
4080
4080
4080
4080
4080
4080
f3e0
ENDCHAR
STARTCHAR oacute
ENCODING 243
SWIDTH 573 0
DWIDTH 12 0
BBX 10 13 1 1
BITMAP
0600
0400
0000
0000
1f00
6180
c0c0
8040
8040
8040
40c0
6180
1f00
ENDCHAR
STARTCHAR ocircumflex
ENCODING 244
SWIDTH 573 0
DWIDTH 12 0
BBX 10 13 1 1
BITMAP
0e00
1b00
0000
0000
1f00
6180
c0c0
8040
8040
8040
40c0
6180
1f00
ENDCHAR
STARTCHAR ohungarumlaut
ENCODING 245
SWIDTH 573 0
DWIDTH 12 0
BBX 10 13 1 1
BITMAP
0500
0a00
0000
0000
1f00
6180
c0c0
8040
8040
8040
40c0
6180
1f00
ENDCHAR
STARTCHAR odieresis
ENCODING 246
SWIDTH 573 0
DWIDTH 12 0
BBX 10 13 1 1
BITMAP
1b00
1b00
0000
0000
1f00
6180
c0c0
8040
8040
8040
40c0
6180
1f00
ENDCHAR
STARTCHAR divide
ENCODING 247
SWIDTH 573 0
DWIDTH 12 0
BBX 10 10 1 2
BITMAP
0c00
0c00
0000
0000
ffc0
0000
0000
0000
0c00
0c00
ENDCHAR
STARTCHAR rcaron
ENCODING 248
SWIDTH 573 0
DWIDTH 12 0
BBX 10 13 2 1
BITMAP
3200
1c00
0000
0000
e780
2c40
3000
2000
2000
2000
2000
2000
fe00
ENDCHAR
STARTCHAR uring
ENCODING 249
SWIDTH 573 0
DWIDTH 12 0
BBX 11 14 1 1
BITMAP
0400
0a00
0a00
0c00
0000
c380
4080
4080
4080
4080
4080
4080
2180
1ee0
ENDCHAR
STARTCHAR uacute
ENCODING 250
SWIDTH 573 0
DWIDTH 12 0
BBX 11 13 1 1
BITMAP
0600
0400
0000
0000
c380
4080
4080
4080
4080
4080
4080
2180
1ee0
ENDCHAR
STARTCHAR uhungarumlaut
ENCODING 251
SWIDTH 573 0
DWIDTH 12 0
BBX 11 13 1 1
BITMAP
0500
0a00
0000
0000
c380
4080
4080
4080
4080
4080
4080
2180
1ee0
ENDCHAR
STARTCHAR udieresis
ENCODING 252
SWIDTH 573 0
DWIDTH 12 0
BBX 11 13 1 1
BITMAP
1b00
1b00
0000
0000
c380
4080
4080
4080
4080
4080
4080
2180
1ee0
ENDCHAR
STARTCHAR yacute
ENCODING 253
SWIDTH 573 0
DWIDTH 12 0
BBX 12 16 0 -2
BITMAP
0300
0200
0000
0000
f0f0
2060
2040
1080
1880
0900
0500
0600
0200
0400
0c00
fe00
ENDCHAR
STARTCHAR tcedilla
ENCODING 254
SWIDTH 573 0
DWIDTH 12 0
BBX 9 15 2 -2
BITMAP
2000
2000
2000
ff00
2000
2000
2000
2000
2000
2000
2080
1f00
0e00
0200
1e00
ENDCHAR
STARTCHAR dotaccent
ENCODING 255
SWIDTH 573 0
DWIDTH 12 0
BBX 1 2 6 12
BITMAP
80
80
ENDCHAR
ENDFONT
